<svg width="8" height="4" viewBox="0 0 8 4" fill="none" xmlns="http://www.w3.org/2000/svg">
<path d="M3.60207 3.65536C3.70571 3.65536 3.80931 3.62297 3.8798 3.56144L7.08809 0.993869C7.15855 0.938826 7.2 0.867592 7.2 0.786649C7.2 0.618282 7.03832 0.48877 6.8228 0.48877C6.71916 0.48877 6.62384 0.521148 6.55334 0.572953L3.37823 3.10816H3.82176L0.646629 0.572953C0.580308 0.521148 0.484972 0.48877 0.377203 0.48877C0.161658 0.48877 0 0.618282 0 0.786649C0 0.867592 0.0414509 0.938826 0.111917 0.997107L3.3202 3.56144C3.39896 3.62297 3.4943 3.65536 3.60207 3.65536Z" fill="#262664" fill-opacity="0.85"/>
</svg>
