<svg width="15" height="13" viewBox="0 0 15 13" fill="current" xmlns="http://www.w3.org/2000/svg">
  <g clip-path="url(#clip0_719_486)">
    <path d="M0.847974 12.9087C1.24684 12.9087 1.53832 12.6326 1.53832 12.2261C1.53832 11.9576 1.5153 11.7045 1.5153 11.344C1.5153 8.49826 2.50479 7.33997 5.31985 7.33997H10.6124L12.4994 7.22494L9.90678 9.58742L8.20391 11.321C8.08891 11.4437 8.01986 11.6278 8.01986 11.8119C8.01986 12.1954 8.31132 12.4715 8.69482 12.4715C8.87129 12.4715 9.04003 12.4025 9.19345 12.2567L14.2866 7.17125C14.4477 7.01783 14.5244 6.84141 14.5244 6.64965C14.5244 6.46556 14.4477 6.28147 14.2866 6.13574L9.20877 1.06556C9.04003 0.896813 8.87129 0.835449 8.69482 0.835449C8.31132 0.835449 8.01986 1.11159 8.01986 1.49511C8.01986 1.6792 8.08119 1.85562 8.20391 1.97834L9.90678 3.71187L12.4917 6.07437L10.6124 5.96699H5.25081C1.61502 5.96699 0.126953 7.56245 0.126953 11.2749C0.126953 11.7198 0.142294 12.1034 0.195987 12.3334C0.257351 12.6479 0.441442 12.9087 0.847974 12.9087Z" fill="current" stroke="current"/>
  </g>
  <defs>
    <clipPath id="clip0_719_486">
      <rect width="14.3974" height="12.127" fill="white" transform="translate(0.126953 0.781738)"/>
    </clipPath>
  </defs>
</svg>
