<svg width="12" height="13" viewBox="0 0 12 13" fill="none" xmlns="http://www.w3.org/2000/svg">
<path d="M4.54092 12.2926C4.8404 12.2926 5.07719 12.1603 5.24434 11.9026L11.8259 1.53929C11.9513 1.33732 12 1.1841 12 1.02392C12 0.640859 11.7493 0.390137 11.3662 0.390137C11.0876 0.390137 10.9344 0.480677 10.7673 0.745333L4.51306 10.7116L1.26756 6.46327C1.09344 6.21948 0.91933 6.12201 0.668602 6.12201C0.271619 6.12201 0 6.39361 0 6.77665C0 6.93687 0.0696463 7.11796 0.201974 7.28508L3.8166 11.8887C4.02554 12.1603 4.24144 12.2926 4.54092 12.2926Z" fill="black" fill-opacity="0.85"/>
</svg>
