<svg width="13" height="19" viewBox="0 0 13 19" fill="none" xmlns="http://www.w3.org/2000/svg">
<path d="M2.12159 18.5002H10.7494C12.1354 18.5002 12.871 17.7459 12.871 16.256V9.75929C12.871 8.26944 12.1354 7.52456 10.7494 7.52456H2.12159C0.735483 7.52456 0 8.26944 0 9.75929V16.256C0 17.7459 0.735483 18.5002 2.12159 18.5002ZM1.65012 8.25061H3.14938V5.06352C3.14938 2.68734 4.66749 1.42382 6.43077 1.42382C8.19404 1.42382 9.73105 2.68734 9.73105 5.06352V8.25061H11.2208V5.27096C11.2208 1.72556 8.90123 0 6.43077 0C3.96972 0 1.65012 1.72556 1.65012 5.27096V8.25061Z" fill="#262664"/>
</svg>
