<svg width="16" height="16" viewBox="0 0 16 16" fill="none" xmlns="http://www.w3.org/2000/svg">
<path d="M2.13701 15.9925H9.45797C10.885 15.9925 11.595 15.2168 11.595 13.6578V10.1967H10.4851V13.6354C10.4851 14.3813 10.1198 14.7916 9.40284 14.7916H2.19216C1.47522 14.7916 1.10987 14.3813 1.10987 13.6354V2.36456C1.10987 1.61864 1.47522 1.20093 2.19216 1.20093H9.40284C10.1198 1.20093 10.4851 1.61864 10.4851 2.36456V5.79579H11.595V2.34219C11.595 0.790678 10.885 0 9.45797 0H2.13701C0.71004 0 0 0.790678 0 2.34219V13.6578C0 15.2168 0.71004 15.9925 2.13701 15.9925ZM6.37656 8.58551H13.4563L14.4903 8.54075L14.0009 9.048L12.891 10.1743C12.7807 10.2787 12.7255 10.4354 12.7255 10.5772C12.7255 10.8904 12.9254 11.1216 13.2081 11.1216C13.3529 11.1216 13.4632 11.062 13.5735 10.9501L15.8208 8.42892C15.9586 8.27967 16 8.14547 16 7.99629C16 7.83963 15.9586 7.71284 15.8208 7.56362L13.5735 5.04241C13.4632 4.93053 13.3529 4.8634 13.2081 4.8634C12.9254 4.8634 12.7255 5.08717 12.7255 5.40045C12.7255 5.54964 12.7807 5.70628 12.891 5.81071L14.0009 6.94451L14.4903 7.45174L13.4563 7.39952H6.37656C6.08704 7.39952 5.84576 7.67549 5.84576 7.99629C5.84576 8.31702 6.08704 8.58551 6.37656 8.58551Z" fill="#FF0000"/>
</svg>
