<svg width="22" height="14" viewBox="0 0 22 14" fill="none" xmlns="http://www.w3.org/2000/svg">
<path d="M16.942 13.9906C18.4202 13.9906 19.8024 13.2019 20.3974 11.9812H20.4358V13.2207C20.4358 13.6901 20.7622 14 21.2133 14C21.674 14 22.0004 13.6901 22.0004 13.1831V6.9202C22.0004 4.87325 20.4647 3.54932 18.0266 3.54932C16.2221 3.54932 14.715 4.32865 14.168 5.53992C14.0624 5.77466 13.9856 6.00001 13.9856 6.1972C13.9856 6.61034 14.3023 6.88264 14.715 6.88264C15.0126 6.88264 15.243 6.76996 15.387 6.50705C15.9245 5.41786 16.7404 4.91082 17.9882 4.91082C19.4856 4.91082 20.3783 5.72771 20.3783 7.04226V7.84978L17.2779 8.01878C14.8495 8.15026 13.4961 9.24886 13.4961 10.9953C13.4961 12.7887 14.907 13.9906 16.942 13.9906ZM17.3355 12.6854C16.0397 12.6854 15.1566 11.9906 15.1566 10.9578C15.1566 9.96245 15.9725 9.29581 17.4794 9.2019L20.3783 9.02346V10.0188C20.3783 11.5117 19.0249 12.6854 17.3355 12.6854Z" fill="#262664"/>
<path d="M0.806282 13.9247C1.31501 13.9247 1.56457 13.7368 1.74694 13.2111L2.98516 9.89653H8.64834L9.88654 13.2111C10.069 13.7368 10.3185 13.9247 10.8176 13.9247C11.3263 13.9247 11.6527 13.6242 11.6527 13.1547C11.6527 12.9951 11.6239 12.8448 11.5471 12.6477L7.04537 0.920002C6.8246 0.347232 6.43106 0.0561523 5.81675 0.0561523C5.22164 0.0561523 4.81849 0.337842 4.60733 0.910611L0.105584 12.6571C0.0287957 12.8543 0 13.0045 0 13.1641C0 13.6336 0.307155 13.9247 0.806282 13.9247ZM3.45549 8.46927L5.78796 2.15004H5.83595L8.16841 8.46927H3.45549Z" fill="#262664"/>
</svg>
