<svg width="19" height="19" viewBox="0 0 19 19" fill="current" xmlns="http://www.w3.org/2000/svg">
  <path stroke-width="0.5px" d="M3.7408 17.9311C4.33442 18.3865 5.05885 18.265 5.80342 17.7085L9.55641 14.9358L13.2993 17.7085C14.054 18.265 14.7784 18.3865 15.372 17.9311C15.9556 17.4859 16.0763 16.7472 15.7846 15.8972L14.2955 11.4751L18.0786 8.75305C18.8232 8.21673 19.1653 7.559 18.9238 6.85065C18.6823 6.1423 18.0283 5.80838 17.1228 5.81849L12.4944 5.85896L11.0858 1.39642C10.8041 0.516068 10.2909 0 9.55641 0C8.82192 0 8.30877 0.516068 8.02704 1.39642L6.61842 5.85896L1.97999 5.81849C1.08451 5.80838 0.430508 6.1423 0.189028 6.84054C-0.0625124 7.559 0.289646 8.21673 1.03421 8.75305L4.81739 11.4751L3.32826 15.8972C3.03648 16.7472 3.15721 17.4859 3.7408 17.9311Z" fill="current"/>
</svg>
