<svg width="7" height="12" viewBox="0 0 7 12" fill="none" xmlns="http://www.w3.org/2000/svg">
<path d="M6.99984 6.46766C6.99984 4.5109 6.35996 2.68831 5.22079 1.18028C4.87179 0.713065 4.15919 1.12014 4.53731 1.60586C5.59891 2.99824 6.16608 4.67743 6.16608 6.46766C6.16608 8.25785 5.59407 9.93242 4.53731 11.3248C4.16891 11.8059 4.85723 12.2361 5.22079 11.755C6.35996 10.2424 6.99984 8.41977 6.99984 6.46766Z" fill="#262664" fill-opacity="0.85"/>
<path d="M4.35794 6.46775C4.35794 5.01523 3.87803 3.65058 3.01518 2.545C2.62738 2.05003 1.95357 2.5265 2.31713 2.97983C3.10728 3.96977 3.52901 5.17711 3.52901 6.46775C3.52901 7.75836 3.10728 8.96571 2.31713 9.95564C1.95357 10.409 2.62738 10.8855 3.01518 10.3858C3.87803 9.28028 4.35794 7.92024 4.35794 6.46775Z" fill="#262664" fill-opacity="0.85"/>
<path d="M1.7259 6.46765C1.7259 5.51471 1.38173 4.62655 0.770942 3.93266C0.368596 3.47933 -0.217955 3.9928 0.082592 4.36287C0.669141 5.06601 0.892126 5.6535 0.892126 6.46765C0.892126 7.28181 0.669141 7.86926 0.082592 8.57241C-0.213107 8.93786 0.373443 9.44668 0.770942 8.99798C1.38173 8.30872 1.7259 7.42056 1.7259 6.46765Z" fill="#262664" fill-opacity="0.85"/>
</svg>
